<svg xmlns="http://www.w3.org/2000/svg" viewBox="0 0 530 515"><defs><style>.a{fill:#000;}</style></defs><title>nekomimirouter</title><path class="a" d="M104.19284,25.55673,0,0,7.6254,134.71515A290.06559,290.06559,0,0,1,104.19284,25.55673Z"/><path class="a" d="M522.425,133.82413,530,0,426.1727,25.46707A290.07932,290.07932,0,0,1,522.425,133.82413Z"/><path class="a" d="M265,15C126.92883,15,15,126.9288,15,265S126.92883,515,265,515,515,403.07117,515,265,403.0712,15,265,15Zm0,50,75,75H290v75H240V140H190ZM65,290V240h75V190l75,75-75,75V290ZM265,465l-75-75h50V315h50v75h50ZM390,290v50l-75-75,75-75v50h75v50Z"/></svg>