<?xml version="1.0" encoding="utf-8"?>
<svg version="1.1" id="Layer_1" xmlns="http://www.w3.org/2000/svg" xmlns:xlink="http://www.w3.org/1999/xlink" x="0px" y="0px"
	 viewBox="0 0 867 200" style="enable-background:new 0 0 867 200;" xml:space="preserve">
<style type="text/css">
	.st0{enable-background:new    ;}
	.st1{fill:#FADED7;}
	.st2{fill:#D7E8BE;}
	.st3{fill:#E5C8B5;}
	.st4{fill:#F8E9D7;}
	.st5{fill:#BDB49A;}
	.st6{fill:#C8C7BC;}
	.st7{fill:#E4E1CF;}
	.st8{fill:#B8B9BA;}
	.st9{fill:#DCE8EF;}
</style>
<title>Dream Recovery Logo</title>
<g class="st0">
	<path d="M245.6,123l1.2-17.3l1.3-34c0-1.4,0-3.4,0-6c3.5,0.1,6.5,0.1,9,0.1c1.6,0,4,0,7.3-0.1s5.6-0.1,7-0.1
		c4.7,0,8.6,0.4,11.8,1.1c2.4,0.5,4.6,1.5,6.6,2.8s3.8,3.1,5.4,5.3c1.6,2.2,2.7,4.6,3.5,7.2c0.9,3.1,1.3,6.4,1.3,9.8
		c0,4.7-0.8,9.2-2.5,13.5s-4.1,7.9-7.4,10.8s-6.9,4.8-11,5.7c-4,0.9-8.6,1.4-13.5,1.4l-11.7-0.1C253.1,122.9,250.4,122.9,245.6,123z
		 M253.7,117.4c3.4,0.1,6.6,0.1,9.5,0.1c2.5,0,5-0.1,7.5-0.4c2.6-0.2,4.9-0.7,6.9-1.3c2-0.6,4-1.8,6-3.5s3.6-3.6,4.8-5.7
		c1.2-2.1,2.2-4.5,2.8-7.1c0.6-2.6,0.9-5.3,0.9-8c0-3-0.4-5.8-1.2-8.4c-0.8-2.6-2.1-4.9-4-7s-4.1-3.5-6.7-4.1c-2.6-0.7-6-1-10.3-1
		c-5.2,0-10,0-14.4,0.1L253.7,117.4z"/>
	<path d="M308,123c1-16.2,1.5-29,1.5-38.7v-3.9c1.4,0,2.6,0,3.5,0c1.1,0,2.3,0,3.6,0l-0.3,7c1-1.7,2-3,2.8-3.9s1.7-1.6,2.7-2.2
		s2.1-1,3.4-1.3s2.6-0.5,4-0.5c1.2,0,2.3,0.1,3.5,0.4c0,1.8,0.1,3.9,0.3,6.2c-1.7-0.5-3.3-0.7-4.7-0.7c-1.7,0-3.1,0.3-4.5,0.8
		c-1.3,0.5-2.5,1.4-3.5,2.5s-1.9,2.4-2.6,4c-0.6,1.2-1,2.8-1.3,4.8s-0.5,5.5-0.7,10.7c-0.1,3.8-0.2,7.8-0.2,12v2.8
		c-1.5-0.1-2.7-0.1-3.7-0.1C311,122.9,309.7,122.9,308,123z"/>
	<path d="M373,116.3c-0.3,1.5-0.7,3.5-1,5.9c-2.7,0.7-5,1.1-7,1.4c-2,0.2-3.9,0.4-5.9,0.4c-3.5,0-6.6-0.4-9.4-1.3
		c-2.8-0.8-5.2-2.3-7.2-4.4s-3.4-4.5-4.3-7.2s-1.3-5.5-1.3-8.5c0-4.2,0.8-8,2.4-11.6s4-6.4,7.2-8.4s7.3-3.1,12.2-3.1
		c2.5,0,5,0.4,7.3,1.1s4.3,1.9,5.8,3.4s2.7,3.4,3.6,5.6c0.8,2.2,1.3,4.7,1.3,7.3c0,1-0.1,2-0.3,2.9h-32c-0.1,1.5-0.2,2.7-0.2,3.5
		c0,2.9,0.6,5.6,1.8,8.1c1.2,2.5,3.1,4.4,5.5,5.6c2.4,1.3,5.2,1.9,8.3,1.9C363.5,119,367.9,118.1,373,116.3z M344.7,96.3h25
		c0-1.8-0.1-3.1-0.3-4.1c-0.2-1-0.6-2-1.1-3c-0.5-1.1-1.3-2-2.2-2.7c-0.9-0.8-2-1.4-3.3-1.8s-2.7-0.6-4.1-0.6
		c-1.6,0-3.1,0.2-4.6,0.7c-1.4,0.4-2.7,1.1-3.8,1.8c-1.1,0.8-2,1.7-2.8,2.8c-0.8,1-1.3,2.1-1.7,3C345.5,93.4,345.1,94.7,344.7,96.3z
		"/>
	<path d="M386.6,87.2c0.3-1.2,0.5-3.1,0.8-5.5c3.4-0.9,6.3-1.5,8.8-1.8s4.9-0.5,7.2-0.5c2.5,0,4.9,0.2,7.1,0.7s4,1.2,5.5,2.2
		s2.4,2.2,2.9,3.6c0.5,1.3,0.7,2.8,0.7,4.3c0,1.9-0.1,5.2-0.4,9.7s-0.5,8.8-0.7,12.6c-0.2,3.9-0.2,7.3-0.2,10.3
		c-1.5-0.1-2.7-0.1-3.7-0.1c-0.9,0-2.2,0-3.8,0.1l0.9-11.5l0.6-13.6c-1,0.8-1.7,1.3-2.2,1.6c-0.5,0.3-1,0.6-1.7,0.9
		c-0.6,0.3-1.3,0.5-2,0.8c-0.7,0.2-2.2,0.7-4.3,1.2c-2.1,0.6-3.7,1-4.6,1.3c-1.9,0.6-3.5,1.2-4.6,1.8c-1.1,0.6-2.1,1.3-2.8,2
		c-0.8,0.7-1.3,1.5-1.6,2.2c-0.4,0.9-0.5,1.8-0.5,2.8c0,1.5,0.4,2.8,1.3,3.9s2,1.9,3.4,2.3s3,0.7,4.9,0.7c1.2,0,2.4-0.1,3.7-0.2
		c1.3-0.2,3-0.6,5.2-1.3c-0.4,1.1-0.8,2.7-1.3,5c-2,0.4-3.7,0.6-5,0.7s-2.5,0.1-3.7,0.1c-3.8,0-6.8-0.4-9-1.3s-3.8-2.3-4.8-4.1
		c-1.1-1.8-1.6-3.8-1.6-6c0-1.3,0.2-2.4,0.6-3.5s0.9-2,1.5-2.9s1.6-1.7,2.8-2.6c1.2-0.9,2.4-1.6,3.7-2.1c1.3-0.6,2.8-1.1,4.6-1.7
		c1.7-0.5,4.5-1.3,8.4-2.2c1.2-0.3,2.3-0.6,3.1-0.9c0.9-0.3,1.6-0.6,2.3-0.9c0.7-0.3,1.3-0.6,1.8-1s1-0.8,1.4-1.4
		c0.4-0.5,0.7-1.1,0.9-1.7c0.2-0.6,0.3-1.1,0.3-1.7c0-1.4-0.4-2.5-1.3-3.5s-2.1-1.7-3.5-2.1s-3.1-0.6-5.1-0.6
		c-1.8,0-3.7,0.1-5.6,0.4s-3.6,0.6-5,1.1C390.4,85.8,388.6,86.4,386.6,87.2z"/>
	<path d="M429.5,123l0.5-6.1c0.1-1.3,0.2-3.3,0.3-6.1l1-25.6c0-2.1,0-3.7,0-4.8c1.3,0,2.5,0,3.6,0c1.2,0,2.3,0,3.5,0l-0.4,7.8
		c1-1.6,1.8-2.8,2.6-3.7s1.8-1.8,3-2.6c1.3-0.8,2.7-1.4,4.3-1.8c1.6-0.4,3.3-0.7,5-0.7c1.2,0,2.4,0.1,3.6,0.4s2.3,0.7,3.3,1.2
		s1.8,1.1,2.6,1.7c0.7,0.6,1.3,1.3,1.7,2.1c0.4,0.8,0.9,1.8,1.3,3.3c1.7-3.2,3.8-5.5,6.4-6.8s5.4-1.9,8.6-1.9c2,0,4,0.3,5.9,1
		c1.9,0.6,3.4,1.6,4.5,2.8c1.1,1.2,1.9,2.5,2.2,3.8c0.4,1.3,0.6,2.6,0.6,3.9s-0.1,3.4-0.3,6s-0.4,6.8-0.7,12.3
		c-0.3,5.5-0.4,10.1-0.4,13.8c-1.5-0.1-2.6-0.1-3.5-0.1s-2.2,0-4,0.1c0.3-3.8,0.6-7.9,0.8-12.3l0.5-10.4c0.1-2.5,0.2-4.7,0.2-6.5
		c0-1.6-0.2-2.9-0.5-3.8s-0.9-1.7-1.6-2.5c-0.7-0.7-1.7-1.3-2.8-1.7s-2.3-0.6-3.7-0.6c-1.1,0-2.2,0.1-3.1,0.4s-1.8,0.6-2.6,1.1
		c-0.9,0.5-1.8,1.2-2.5,2s-1.3,1.6-1.8,2.6s-1,2.1-1.3,3.5c-0.4,1.7-0.7,3.7-0.9,6.2c-0.2,2.6-0.3,6-0.5,10.3l-0.3,11.8
		c-1.6-0.1-2.8-0.1-3.7-0.1c-0.8,0-2,0-3.8,0.1c0.3-3.5,0.5-7,0.7-10.7l0.5-10.2c0.1-3.1,0.2-5.8,0.2-8c0-1.4-0.1-2.6-0.4-3.6
		s-0.8-1.9-1.6-2.7c-0.8-0.8-1.7-1.5-2.8-1.9c-1.1-0.4-2.3-0.7-3.6-0.7c-1.4,0-2.7,0.2-4,0.7s-2.4,1.2-3.5,2.2s-2,2.1-2.7,3.5
		s-1.3,3.2-1.7,5.5c-0.4,2.3-0.7,6.2-1,11.8c-0.2,5.6-0.4,10.3-0.4,14.2c-1.8-0.1-3-0.1-3.7-0.1C432.6,122.9,431.3,122.9,429.5,123z
		"/>
	<path d="M525.7,123l0.8-11.3l1-20.9l0.4-17.6c0.1-3.6,0.1-6.1,0.1-7.6c3.4,0.1,6.1,0.1,8.4,0.1c1.9,0,4,0,6.3-0.1s4.2-0.1,5.7-0.1
		c2.6,0,5,0.2,7.1,0.5c2.1,0.4,4.1,1.2,5.8,2.5s2.9,2.8,3.7,4.5s1.2,3.7,1.2,5.9c0,2.1-0.3,4-0.9,5.8c-0.6,1.8-1.6,3.4-2.8,4.9
		s-2.7,2.6-4.3,3.6c-1.3,0.7-2.9,1.3-4.8,1.7c-1.3,0.3-3.1,0.5-5.3,0.8l7.4,11.8l7.6,11.7c0.5,0.8,1.3,2,2.3,3.7
		c-2.2-0.1-3.6-0.1-4.3-0.1c-0.8,0-2.3,0-4.5,0.1l-3-5.8c-0.6-1.1-1.2-2.2-1.9-3.3c-0.6-1.1-1.3-2.3-2-3.5l-9.5-15.5
		c-0.4-0.6-1-1.7-1.9-3.2c2.2,0.4,4.1,0.6,5.7,0.6c2.8,0,5.3-0.5,7.6-1.4s4-2.4,5.3-4.3c1.2-1.9,1.9-4.1,1.9-6.5
		c0-1.3-0.2-2.5-0.6-3.6c-0.4-1.1-1-2-1.9-2.8s-1.7-1.3-2.5-1.6s-1.9-0.6-3.2-0.8c-1.3-0.2-2.7-0.3-4.1-0.3l-6,0.1
		c-2.6,0-4.2,0-4.9,0c-0.9,18.8-1.4,36.1-1.6,51.9l-4.1-0.1C529.1,122.9,527.8,122.9,525.7,123z"/>
	<path d="M608.3,116.3c-0.3,1.5-0.7,3.5-1,5.9c-2.7,0.7-5,1.1-7,1.4c-2,0.2-3.9,0.4-5.9,0.4c-3.5,0-6.6-0.4-9.4-1.3
		s-5.2-2.3-7.2-4.4s-3.4-4.5-4.3-7.2c-0.9-2.7-1.3-5.5-1.3-8.5c0-4.2,0.8-8,2.4-11.6c1.6-3.6,4-6.4,7.2-8.4s7.3-3.1,12.2-3.1
		c2.5,0,5,0.4,7.3,1.1s4.3,1.9,5.8,3.4s2.7,3.4,3.6,5.6c0.8,2.2,1.3,4.7,1.3,7.3c0,1-0.1,2-0.3,2.9h-32c-0.1,1.5-0.2,2.7-0.2,3.5
		c0,2.9,0.6,5.6,1.8,8.1s3.1,4.4,5.5,5.6c2.4,1.3,5.2,1.9,8.3,1.9C598.7,119,603.1,118.1,608.3,116.3z M580,96.3h25
		c0-1.8-0.1-3.1-0.3-4.1s-0.6-2-1.1-3c-0.5-1.1-1.3-2-2.2-2.7c-0.9-0.8-2-1.4-3.3-1.8s-2.7-0.6-4.1-0.6c-1.6,0-3.1,0.2-4.6,0.7
		c-1.4,0.4-2.7,1.1-3.8,1.8c-1.1,0.8-2,1.7-2.8,2.8c-0.8,1-1.3,2.1-1.7,3C580.7,93.4,580.4,94.7,580,96.3z"/>
	<path d="M650.4,116.6c-0.1,0.4-0.2,1.3-0.4,2.5s-0.4,2.4-0.6,3.6c-2,0.5-4,0.8-5.9,1s-3.5,0.3-5,0.3c-3,0-5.8-0.4-8.4-1.2
		c-2.6-0.8-4.8-2.1-6.7-4s-3.3-4.2-4.2-6.9c-0.9-2.8-1.3-5.7-1.3-8.7c0-4.1,0.7-8,2.2-11.7s3.8-6.6,6.9-8.7
		c3.1-2.1,7.4-3.1,12.8-3.1c4,0,7.9,0.5,11.6,1.6c0.2,2.4,0.3,4.3,0.5,5.9c-2.7-0.8-4.8-1.4-6.5-1.7c-1.7-0.3-3.2-0.4-4.7-0.4
		c-2.5,0-4.7,0.4-6.6,1.3c-1.9,0.9-3.6,2.2-5,3.8c-1.4,1.7-2.4,3.6-3,5.9s-0.9,4.6-0.9,6.9c0,3.2,0.5,5.9,1.5,8.3s2.7,4.2,5.1,5.5
		c2.4,1.3,5.2,2,8.3,2C643.1,118.6,646.5,117.9,650.4,116.6z"/>
	<path d="M680.9,79.5c2.9,0,5.7,0.4,8.4,1.3c2.7,0.8,5,2.2,6.9,4s3.4,4.1,4.4,6.9s1.5,5.7,1.5,8.8c0,3.3-0.5,6.5-1.6,9.6
		s-2.6,5.6-4.5,7.8c-1.9,2.1-4.3,3.7-7.1,4.7s-5.8,1.5-9,1.5c-3,0-5.8-0.4-8.5-1.3s-5-2.3-6.9-4.2c-1.9-1.9-3.4-4.2-4.4-7
		s-1.5-5.6-1.5-8.7c0-4.6,0.9-8.7,2.8-12.3c1.8-3.7,4.6-6.4,8.1-8.2C673,80.4,676.8,79.5,680.9,79.5z M680.7,84.8
		c-2.9,0-5.5,0.7-7.9,2.1s-4.2,3.6-5.3,6.4c-1.1,2.9-1.7,6-1.7,9.4c0,3,0.5,5.6,1.4,8c1,2.4,2.5,4.3,4.7,5.7
		c2.2,1.5,4.8,2.2,7.9,2.2c2.1,0,4.1-0.4,6-1.1s3.5-1.9,4.9-3.5c1.4-1.7,2.4-3.7,3.1-6.1c0.7-2.4,1-4.9,1-7.5c0-2.5-0.3-4.8-1-6.9
		c-0.7-2.2-1.7-3.9-3.1-5.2c-1.4-1.3-2.9-2.2-4.7-2.8C684.3,85.1,682.5,84.8,680.7,84.8z"/>
	<path d="M721.8,123l-1.4-4.2c-0.5-1.4-1.6-4.5-3.4-9.4l-10.6-28.9c1.7,0,3.1,0,4,0c1.1,0,2.3,0,3.8,0l0.9,2.9
		c0.3,0.8,0.7,2.2,1.3,4l9.9,29.3l13.3-32.1l1.6-4.2c1.7,0,3,0,4,0s2.3,0,4,0l-5.5,11.7l-11,24.4L730,123c-1.7-0.1-3.1-0.1-4.1-0.1
		S723.5,122.9,721.8,123z"/>
	<path d="M787.5,116.3c-0.3,1.5-0.7,3.5-1,5.9c-2.7,0.7-5,1.1-7,1.4c-2,0.2-3.9,0.4-5.9,0.4c-3.5,0-6.6-0.4-9.4-1.3
		s-5.2-2.3-7.2-4.4s-3.4-4.5-4.3-7.2c-0.9-2.7-1.3-5.5-1.3-8.5c0-4.2,0.8-8,2.4-11.6c1.6-3.6,4-6.4,7.2-8.4s7.3-3.1,12.2-3.1
		c2.5,0,5,0.4,7.3,1.1s4.3,1.9,5.8,3.4s2.7,3.4,3.6,5.6c0.8,2.2,1.3,4.7,1.3,7.3c0,1-0.1,2-0.3,2.9h-32c-0.1,1.5-0.2,2.7-0.2,3.5
		c0,2.9,0.6,5.6,1.8,8.1s3.1,4.4,5.5,5.6c2.4,1.3,5.2,1.9,8.3,1.9C778,119,782.4,118.1,787.5,116.3z M759.2,96.3h25
		c0-1.8-0.1-3.1-0.3-4.1s-0.6-2-1.1-3c-0.5-1.1-1.3-2-2.2-2.7c-0.9-0.8-2-1.4-3.3-1.8s-2.7-0.6-4.1-0.6c-1.6,0-3.1,0.2-4.6,0.7
		c-1.4,0.4-2.7,1.1-3.8,1.8c-1.1,0.8-2,1.7-2.8,2.8c-0.8,1-1.3,2.1-1.7,3C760,93.4,759.6,94.7,759.2,96.3z"/>
	<path d="M798.2,123c1-16.2,1.5-29,1.5-38.7v-3.9c1.4,0,2.6,0,3.5,0c1.1,0,2.3,0,3.6,0l-0.3,7c1-1.7,2-3,2.8-3.9s1.7-1.6,2.7-2.2
		s2.1-1,3.4-1.3c1.3-0.3,2.6-0.5,4-0.5c1.2,0,2.3,0.1,3.5,0.4c0,1.8,0.1,3.9,0.3,6.2c-1.7-0.5-3.3-0.7-4.7-0.7
		c-1.7,0-3.1,0.3-4.5,0.8c-1.3,0.5-2.5,1.4-3.5,2.5s-1.9,2.4-2.6,4c-0.6,1.2-1,2.8-1.3,4.8s-0.5,5.5-0.7,10.7
		c-0.1,3.8-0.2,7.8-0.2,12v2.8c-1.5-0.1-2.7-0.1-3.7-0.1C801.2,122.9,800,122.9,798.2,123z"/>
	<path d="M821.5,142.4c-0.2-2.4-0.4-4.4-0.7-6c1.4,0.7,2.7,1.1,3.9,1.4c1.2,0.2,2.2,0.4,3.1,0.4c1.1,0,2.2-0.2,3.2-0.6
		c1-0.4,1.9-0.9,2.5-1.6c0.6-0.6,1.3-1.5,2-2.7c0.7-1.1,1.5-2.5,2.3-4s1.6-3.2,2.3-5.1l-9-25.5l-6.6-18.2c2,0.1,3.4,0.1,4.1,0.1
		c0.8,0,2.1,0,3.8-0.1c0.4,2,0.8,3.5,1.1,4.5s1,3.1,2,6.3l6.4,19.3c0.7,2.2,1.4,4.5,2.1,7l4.8-11.6l8.8-20.5
		c0.3-0.6,0.5-1.3,0.7-1.9c0.2-0.7,0.6-1.7,1.1-3.1c1.8,0.1,3,0.1,3.7,0.1c0.6,0,1.9,0,3.9-0.1c-1.1,2.5-3.7,8.3-7.9,17.4
		l-15.6,34.6c-1.1,2.3-2.1,4.1-3,5.3c-0.7,1-1.5,1.8-2.4,2.5c-0.7,0.6-1.4,1.1-2.3,1.5c-1,0.5-2.2,0.9-3.4,1.2
		c-1.3,0.3-2.7,0.4-4,0.4C826.4,143.4,824,143.1,821.5,142.4z"/>
</g>
<polygon class="st1" points="103,0 49,49 33,121 0,21 "/>
<polygon class="st2" points="103,0 157,49 173,121 206,21 "/>
<polygon class="st3" points="103,0 49,49 103,49 157,49 "/>
<polygon class="st4" points="103,49 49,49 103,81 157,49 "/>
<polygon class="st5" points="76,96 49,49 33,121 103,143 "/>
<polygon class="st6" points="49,49 76,96 103,143 103,81 "/>
<polygon class="st7" points="103,81 103,143 130,96 157,49 "/>
<polygon class="st8" points="157,49 130,96 103,143 173,121 "/>
<polygon class="st9" points="173,121 103,143 33,121 103,200 "/>
</svg>
