<svg xmlns="http://www.w3.org/2000/svg" viewBox="0 0 206 200"><defs><style>.a{fill:#faded7;}.b{fill:#d7e8be;}.c{fill:#e5c8b5;}.d{fill:#f8e9d7;}.e{fill:#bdb49a;}.f{fill:#c8c7bc;}.g{fill:#e4e1cf;}.h{fill:#b8b9ba;}.i{fill:#dce8ef;}</style></defs><title>DreamryLogo</title><polygon class="a" points="103 0 49 49 33 121 0 21 103 0"/><polygon class="b" points="103 0 157 49 173 121 206 21 103 0"/><polygon class="c" points="103 0 49 49 103 49 157 49 103 0"/><polygon class="d" points="103 49 49 49 103 81 157 49 103 49"/><polygon class="e" points="76 96 49 49 33 121 103 143 76 96"/><polygon class="f" points="49 49 76 96 103 143 103 81 49 49"/><polygon class="g" points="103 81 103 143 130 96 157 49 103 81"/><polygon class="h" points="157 49 130 96 103 143 173 121 157 49"/><polygon class="i" points="173 121 103 143 33 121 103 200 173 121"/></svg>
