<svg xmlns="http://www.w3.org/2000/svg" viewBox="0 0 1074 1030"><defs><style>.a{fill:#000;}</style></defs><title>nekomimirouter</title><path class="a" d="M0-485c-276,0-500,224-500,500S-276,515,0,515,500,291,500,15,276-485,0-485ZM0-385,150-235H50V-85H-50V-235H-150ZM-400,65V-35h150V-135L-100,15-250,165V65ZM0,415-150,265H-50V115H50V265H150ZM250,65V165L100,15,250-135V-35H400V65Z" transform="translate(537 515)"/><path class="a" d="M532-210c7-91,7-192-2-305-86,2-169,10-248,26A580,580,0,0,1,532-210Z" transform="translate(537 515)"/><path class="a" d="M-532-210c-7-91-7-192,2-305,86,2,169,10,248,26A580,580,0,0,0-532-210Z" transform="translate(537 515)"/></svg>
